# xmcd CD database file
#
# Track frame offsets:
#	150
#	14005
#	35960
#	49482
#	73732
#	87814
#	99658
#	120613
#	138998
#	152916
#	167022
#	182641
#
# Disc length: 2800 seconds
#
# Revision: 0
# Processed by: cddbd v1.5.1PL0 Copyright (c) Steve Scherf et al.
# Submitted via: CDex 1.51
#
DISCID=ab0aee0c
DTITLE=The Wolfe Gang - Coming Back For More
DYEAR=1900
DGENRE=Blues
TTITLE0=Don't Turn Your Heater Down
TTITLE1=Take What I Want
TTITLE2=Cease And Desist
TTITLE3=Damn Your Eyes
TTITLE4=You Ain't My Cup Of Tea
TTITLE5=just A Little Bit
TTITLE6=Messin' With The Kid
TTITLE7=Coming Back For More
TTITLE8=Hound Dog
TTITLE9=You Can Have My Husband
TTITLE10=Too Much Stuff
TTITLE11=It Ain't That I Don't Love You
EXTD=
EXTT0=
EXTT1=
EXTT2=
EXTT3=
EXTT4=
EXTT5=
EXTT6=
EXTT7=
EXTT8=
EXTT9=
EXTT10=
EXTT11=
PLAYORDER=
